HIERARCHY
ROOT Hips
{
  OFFSET 5.72205e-005 65.662 3.42586
  CHANNELS 6 Xposition Yposition Zposition Zrotation Xrotation Yrotation
  JOINT Chest
  {
    OFFSET 0 8.7983 -4.7612
    CHANNELS 6 Xposition Yposition Zposition Zrotation Xrotation Yrotation
    JOINT Chest2
    {
      OFFSET 0 8.0291 0.4195
      CHANNELS 6 Xposition Yposition Zposition Zrotation Xrotation Yrotation
      JOINT Chest3
      {
        OFFSET 0 9.9351 -2.2114
        CHANNELS 6 Xposition Yposition Zposition Zrotation Xrotation Yrotation
        JOINT Neck
        {
          OFFSET 0 22.3885 -0.4656
          CHANNELS 6 Xposition Yposition Zposition Zrotation Xrotation Yrotation
          JOINT Head
          {
            OFFSET -0.0001 12.643 3.4389
            CHANNELS 6 Xposition Yposition Zposition Zrotation Xrotation Yrotation
            End Site
            {
              OFFSET 0.0001 17.6655 0.5274
            }
          }
        }
        JOINT LeftCollar
        {
          OFFSET 2.2603 21.606 7.4023
          CHANNELS 6 Xposition Yposition Zposition Zrotation Xrotation Yrotation
          JOINT LeftShoulder
          {
            OFFSET 13.5163 -1.1332 -5.0146
            CHANNELS 6 Xposition Yposition Zposition Zrotation Xrotation Yrotation
            JOINT LeftElbow
            {
              OFFSET -0.0995 -28.05 -0.2431
              CHANNELS 6 Xposition Yposition Zposition Zrotation Xrotation Yrotation
              JOINT LeftWrist
              {
                OFFSET 0.0679 -23.3996 -0.1402
                CHANNELS 6 Xposition Yposition Zposition Zrotation Xrotation Yrotation
                JOINT LeftFinger1
                {
                  OFFSET 0.7932 -9.069 2.5189
                  CHANNELS 6 Xposition Yposition Zposition Zrotation Xrotation Yrotation
                  JOINT LeftFinger11
                  {
                    OFFSET -0.8272 -3.3923 0.5977
                    CHANNELS 6 Xposition Yposition Zposition Zrotation Xrotation Yrotation
                    JOINT LeftFinger12
                    {
                      OFFSET -0.5649 -2.3158 0.4082
                      CHANNELS 6 Xposition Yposition Zposition Zrotation Xrotation Yrotation
                      End Site
                      {
                        OFFSET -0.4919 -1.6479 0.2673
                      }
                    }
                  }
                }
                JOINT LeftFinger2
                {
                  OFFSET 0.9159 -9.2044 0.2193
                  CHANNELS 6 Xposition Yposition Zposition Zrotation Xrotation Yrotation
                  JOINT LeftFinger21
                  {
                    OFFSET 0.0117 -4.1944 -0.0248
                    CHANNELS 6 Xposition Yposition Zposition Zrotation Xrotation Yrotation
                    JOINT LeftFinger22
                    {
                      OFFSET 0.0071 -2.3249 -0.0142
                      CHANNELS 6 Xposition Yposition Zposition Zrotation Xrotation Yrotation
                      End Site
                      {
                        OFFSET -0.1475 -2.0882 0.0028
                      }
                    }
                  }
                }
                JOINT LeftFinger3
                {
                  OFFSET 0.6113 -8.7231 -2.0637
                  CHANNELS 6 Xposition Yposition Zposition Zrotation Xrotation Yrotation
                  JOINT LeftFinger31
                  {
                    OFFSET -0.1927 -3.8059 -0.2383
                    CHANNELS 6 Xposition Yposition Zposition Zrotation Xrotation Yrotation
                    JOINT LeftFinger32
                    {
                      OFFSET -0.1091 -2.1688 -0.1362
                      CHANNELS 6 Xposition Yposition Zposition Zrotation Xrotation Yrotation
                      End Site
                      {
                        OFFSET -0.2358 -1.9176 -0.0906
                      }
                    }
                  }
                }
                JOINT LeftFinger4
                {
                  OFFSET -0.6151 -8.0947 -3.5641
                  CHANNELS 6 Xposition Yposition Zposition Zrotation Xrotation Yrotation
                  JOINT LeftFinger41
                  {
                    OFFSET -0.4882 -2.341 -0.6462
                    CHANNELS 6 Xposition Yposition Zposition Zrotation Xrotation Yrotation
                    JOINT LeftFinger42
                    {
                      OFFSET -0.3575 -1.7167 -0.4742
                      CHANNELS 6 Xposition Yposition Zposition Zrotation Xrotation Yrotation
                      End Site
                      {
                        OFFSET -0.4187 -1.5237 -0.3496
                      }
                    }
                  }
                }
                JOINT LeftFinger0
                {
                  OFFSET -1.42 -1.8761 1.4223
                  CHANNELS 6 Xposition Yposition Zposition Zrotation Xrotation Yrotation
                  JOINT LeftFinger01
                  {
                    OFFSET -1.1471 -3.4929 2.6334
                    CHANNELS 6 Xposition Yposition Zposition Zrotation Xrotation Yrotation
                    JOINT LeftFinger02
                    {
                      OFFSET -0.823 -2.3 1.6571
                      CHANNELS 6 Xposition Yposition Zposition Zrotation Xrotation Yrotation
                      End Site
                      {
                        OFFSET -0.5822 -1.6914 1.1582
                      }
                    }
                  }
                }
              }
            }
          }
        }
        JOINT RightCollar
        {
          OFFSET -2.2603 21.606 7.4023
          CHANNELS 6 Xposition Yposition Zposition Zrotation Xrotation Yrotation
          JOINT RightShoulder
          {
            OFFSET -13.5187 -1.1334 -5.0155
            CHANNELS 6 Xposition Yposition Zposition Zrotation Xrotation Yrotation
            JOINT RightElbow
            {
              OFFSET 0.0994 -28.0499 -0.2431
              CHANNELS 6 Xposition Yposition Zposition Zrotation Xrotation Yrotation
              JOINT RightWrist
              {
                OFFSET -0.0679 -23.3996 -0.1402
                CHANNELS 6 Xposition Yposition Zposition Zrotation Xrotation Yrotation
                JOINT RightFinger1
                {
                  OFFSET -0.7932 -9.0691 2.5189
                  CHANNELS 6 Xposition Yposition Zposition Zrotation Xrotation Yrotation
                  JOINT RightFinger11
                  {
                    OFFSET 0.8272 -3.3923 0.5977
                    CHANNELS 6 Xposition Yposition Zposition Zrotation Xrotation Yrotation
                    JOINT RightFinger12
                    {
                      OFFSET 0.565 -2.3158 0.4082
                      CHANNELS 6 Xposition Yposition Zposition Zrotation Xrotation Yrotation
                      End Site
                      {
                        OFFSET 0.4919 -1.6479 0.2673
                      }
                    }
                  }
                }
                JOINT RightFinger2
                {
                  OFFSET -0.916 -9.2044 0.2193
                  CHANNELS 6 Xposition Yposition Zposition Zrotation Xrotation Yrotation
                  JOINT RightFinger21
                  {
                    OFFSET -0.0117 -4.1944 -0.0248
                    CHANNELS 6 Xposition Yposition Zposition Zrotation Xrotation Yrotation
                    JOINT RightFinger22
                    {
                      OFFSET -0.0071 -2.3249 -0.0142
                      CHANNELS 6 Xposition Yposition Zposition Zrotation Xrotation Yrotation
                      End Site
                      {
                        OFFSET 0.1475 -2.0882 0.0028
                      }
                    }
                  }
                }
                JOINT RightFinger3
                {
                  OFFSET -0.6113 -8.7231 -2.0637
                  CHANNELS 6 Xposition Yposition Zposition Zrotation Xrotation Yrotation
                  JOINT RightFinger31
                  {
                    OFFSET 0.1927 -3.8059 -0.2383
                    CHANNELS 6 Xposition Yposition Zposition Zrotation Xrotation Yrotation
                    JOINT RightFinger32
                    {
                      OFFSET 0.1091 -2.1688 -0.1362
                      CHANNELS 6 Xposition Yposition Zposition Zrotation Xrotation Yrotation
                      End Site
                      {
                        OFFSET 0.2358 -1.9176 -0.0906
                      }
                    }
                  }
                }
                JOINT RightFinger4
                {
                  OFFSET 0.6151 -8.0947 -3.564
                  CHANNELS 6 Xposition Yposition Zposition Zrotation Xrotation Yrotation
                  JOINT RightFinger41
                  {
                    OFFSET 0.4882 -2.341 -0.6462
                    CHANNELS 6 Xposition Yposition Zposition Zrotation Xrotation Yrotation
                    JOINT RightFinger42
                    {
                      OFFSET 0.3574 -1.7166 -0.4742
                      CHANNELS 6 Xposition Yposition Zposition Zrotation Xrotation Yrotation
                      End Site
                      {
                        OFFSET 0.4187 -1.5237 -0.3496
                      }
                    }
                  }
                }
                JOINT RightFinger0
                {
                  OFFSET 1.4199 -1.8761 1.4221
                  CHANNELS 6 Xposition Yposition Zposition Zrotation Xrotation Yrotation
                  JOINT RightFinger01
                  {
                    OFFSET 1.1472 -3.4929 2.6336
                    CHANNELS 6 Xposition Yposition Zposition Zrotation Xrotation Yrotation
                    JOINT RightFinger02
                    {
                      OFFSET 0.8229 -2.3 1.6571
                      CHANNELS 6 Xposition Yposition Zposition Zrotation Xrotation Yrotation
                      End Site
                      {
                        OFFSET 0.5822 -1.6914 1.1582
                      }
                    }
                  }
                }
              }
            }
          }
        }
      }
    }
  }
  JOINT RightHip
  {
    OFFSET -9.412 3.9771 -0.7758
    CHANNELS 6 Xposition Yposition Zposition Zrotation Xrotation Yrotation
    JOINT RightKnee
    {
      OFFSET -0.7531 -40.938 0
      CHANNELS 6 Xposition Yposition Zposition Zrotation Xrotation Yrotation
      JOINT RightAnkle
      {
        OFFSET 0 -40.1986 0
        CHANNELS 6 Xposition Yposition Zposition Zrotation Xrotation Yrotation
        JOINT RightToe
        {
          OFFSET 0 -4.4182 9.239
          CHANNELS 6 Xposition Yposition Zposition Zrotation Xrotation Yrotation
          End Site
          {
            OFFSET 0 0 6.1981
          }
        }
      }
    }
  }
  JOINT LeftHip
  {
    OFFSET 9.4119 3.9773 -0.7758
    CHANNELS 6 Xposition Yposition Zposition Zrotation Xrotation Yrotation
    JOINT LeftKnee
    {
      OFFSET 0.7532 -40.9383 0
      CHANNELS 6 Xposition Yposition Zposition Zrotation Xrotation Yrotation
      JOINT LeftAnkle
      {
        OFFSET 0 -40.1986 0
        CHANNELS 6 Xposition Yposition Zposition Zrotation Xrotation Yrotation
        JOINT LeftToe
        {
          OFFSET 0 -4.4182 9.239
          CHANNELS 6 Xposition Yposition Zposition Zrotation Xrotation Yrotation
          End Site
          {
            OFFSET 0 0 6.1981
          }
        }
      }
    }
  }
}
MOTION
Frames:	4
Frame Time:	0.0333333
5.72205e-005 65.662 3.42586 0 0 -0 0 8.7983 -4.7612 0 0 -0 0 8.0291 0.4195 0 0 -0 0 9.9351 -2.2114 0 0 -0 0 22.3885 -0.4656 0 0 -0 -0.0001 12.643 3.4389 0 0 -0 2.2603 21.606 7.4023 0 0 -12.5014 13.5163 -1.1332 -5.0146 88.1196 14.2451 10.6914 -0.0995 -28.05 -0.2431 -0.00160068 -0.00239207 0.000740045 0.0679 -23.3996 -0.1402 -8.4365e-005 7.00714e-005 -9.52055e-007 0.7932 -9.069 2.5189 9.93923e-017 -1.98785e-016 -1.59028e-015 -0.8272 -3.3923 0.5977 9.93923e-017 -5.96354e-016 -1.59028e-015 -0.5649 -2.3158 0.4082 -9.93923e-017 -5.96354e-016 -1.59028e-015 0.9159 -9.2044 0.2193 9.93923e-017 -1.98785e-016 -1.59028e-015 0.0117 -4.1944 -0.0248 -0.0128176 0.00232552 8.52707e-005 0.0071 -2.3249 -0.0142 9.93923e-017 5.96354e-016 -0 0.6113 -8.7231 -2.0637 9.93923e-017 -1.98785e-016 -1.59028e-015 -0.1927 -3.8059 -0.2383 -0.0160551 0.00299681 0.000857156 -0.1091 -2.1688 -0.1362 -2.48481e-016 0 3.18055e-015 -0.6151 -8.0947 -3.5641 9.93923e-017 -1.98785e-016 -1.59028e-015 -0.4882 -2.341 -0.6462 -0.0125865 0.0031206 0.00282719 -0.3575 -1.7167 -0.4742 0 1.98785e-016 -0 -1.42 -1.8761 1.4223 9.93923e-017 -1.98785e-016 -1.59028e-015 -1.1471 -3.4929 2.6334 9.93923e-017 -5.96354e-016 -1.59028e-015 -0.823 -2.3 1.6571 -9.93923e-017 -5.96354e-016 -1.59028e-015 -2.2603 21.606 7.4023 -0.865644 0.16582 7.03859 -13.5187 -1.1334 -5.0155 -88.0329 10.2057 -10.5567 0.0994 -28.0499 -0.2431 0.0015593 -0.00248883 -0.000788628 -0.0679 -23.3996 -0.1402 7.87605e-005 4.10553e-005 1.24965e-005 -0.7932 -9.0691 2.5189 -3.97569e-016 -7.95139e-016 3.18055e-015 0.8272 -3.3923 0.5977 -1.98785e-016 -3.97569e-016 3.18055e-015 0.565 -2.3158 0.4082 -1.98785e-016 0 3.18055e-015 -0.916 -9.2044 0.2193 -3.97569e-016 -7.95139e-016 3.18055e-015 -0.0117 -4.1944 -0.0248 0.0129473 0.00231697 -8.70038e-005 -0.0071 -2.3249 -0.0142 9.93923e-017 -7.95139e-016 1.59028e-015 -0.6113 -8.7231 -2.0637 -3.97569e-016 -7.95139e-016 3.18055e-015 0.1927 -3.8059 -0.2383 0.0163314 0.00303369 -0.000872333 0.1091 -2.1688 -0.1362 3.97569e-016 7.95139e-016 -3.18055e-015 0.6151 -8.0947 -3.564 -3.97569e-016 -7.95139e-016 3.18055e-015 0.4882 -2.341 -0.6462 0.0145763 0.00367772 -0.00326275 0.3574 -1.7166 -0.4742 9.93923e-017 -3.97569e-016 -0 1.4199 -1.8761 1.4221 -3.97569e-016 -7.95139e-016 3.18055e-015 1.1472 -3.4929 2.6336 -1.98785e-016 -3.97569e-016 3.18055e-015 0.8229 -2.3 1.6571 -1.98785e-016 0 3.18055e-015 -9.412 3.9771 -0.7758 3.42482 1.32465 -0.0626183 -0.7531 -40.938 0 0.000117508 0.717283 0.000978199 0 -40.1986 0 -3.4257 -2.04197 -0.0604716 8.88178e-016 -4.4182 9.239 6.47761e-025 0 -0 9.4119 3.9773 -0.7758 -3.42483 1.34017 0.0627307 0.7532 -40.9383 -2.22045e-016 -0.000193936 0.682302 -0.0013703 -8.88179e-016 -40.1986 0 3.42574 -2.02253 0.0595886 -8.88178e-016 -4.4182 9.239 -8.45714e-024 0 -7.40531e-025 
0.0051758 27.9134 9.69599 -180 -89.9981 -180 0 8.7983 -4.7612 0 0 -0 0 8.0291 0.4195 0 0 -0 0 9.9351 -2.2114 0 0 -0 0 22.3885 -0.4656 1.9987 -0.0821309 0.00286647 -0.0001 12.643 3.4389 19.9982 2.48934e-006 4.18196e-006 2.2603 21.606 7.4023 8.87476e-007 -0.0821799 -12.5014 13.5163 -1.1332 -5.0146 14.4587 4.95786 22.3899 -0.0995 -28.05 -0.2431 -52.0683 -75.1827 -44.3345 0.0679 -23.3996 -0.1402 -38.4736 6.83409 1.14959 0.7932 -9.069 2.5189 1.59028e-015 3.18055e-015 3.97569e-016 -0.8272 -3.3923 0.5977 3.77691e-015 9.54166e-015 2.78299e-015 -0.5649 -2.3158 0.4082 9.93923e-017 0 -3.97569e-016 0.9159 -9.2044 0.2193 1.59028e-015 3.18055e-015 3.97569e-016 0.0117 -4.1944 -0.0248 -0.0127895 0.00232324 8.863e-005 0.0071 -2.3249 -0.0142 -5.63885e-006 -1.62332e-007 -3.72894e-007 0.6113 -8.7231 -2.0637 1.59028e-015 3.18055e-015 3.97569e-016 -0.1927 -3.8059 -0.2383 -0.0160352 0.0029904 0.000858269 -0.1091 -2.1688 -0.1362 2.28602e-015 -6.36111e-015 -3.18055e-015 -0.6151 -8.0947 -3.5641 1.59028e-015 3.18055e-015 3.97569e-016 -0.4882 -2.341 -0.6462 -0.0126001 0.00312287 0.00283454 -0.3575 -1.7167 -0.4742 -1.58034e-014 6.36111e-015 -1.59028e-015 -1.42 -1.8761 1.4223 1.59028e-015 3.18055e-015 3.97569e-016 -1.1471 -3.4929 2.6334 3.77691e-015 9.54166e-015 2.78299e-015 -0.823 -2.3 1.6571 9.93923e-017 0 -3.97569e-016 -2.2603 21.606 7.4023 -0.865642 0.0836488 7.03735 -13.5187 -1.1334 -5.0155 -14.5989 4.81951 -17.0129 0.0994 -28.0499 -0.2431 53.5931 -76.404 45.2038 -0.0679 -23.3996 -0.1402 35.4221 6.53517 -0.0276218 -0.7932 -9.0691 2.5189 -3.5397e-006 -4.36769e-006 -1.3388e-006 0.8272 -3.3923 0.5977 -2.84599e-007 -3.16673e-006 8.04873e-007 0.565 -2.3158 0.4082 -3.13086e-015 2.54444e-014 3.08116e-015 -0.916 -9.2044 0.2193 -3.5397e-006 -4.36769e-006 -1.3388e-006 -0.0117 -4.1944 -0.0248 0.0129622 0.00231732 -8.30618e-005 -0.0071 -2.3249 -0.0142 -2.84629e-007 4.70823e-008 8.04862e-007 -0.6113 -8.7231 -2.0637 -3.5397e-006 -4.36769e-006 -1.3388e-006 0.1927 -3.8059 -0.2383 0.0163523 0.00303252 -0.000873926 0.1091 -2.1688 -0.1362 -2.84639e-007 4.70823e-008 8.04858e-007 0.6151 -8.0947 -3.564 -3.5397e-006 -4.36769e-006 -1.3388e-006 0.4882 -2.341 -0.6462 0.0145822 0.00367743 -0.00325464 0.3574 -1.7166 -0.4742 -1.14301e-015 9.54166e-015 -6.95746e-016 1.4199 -1.8761 1.4221 -3.5397e-006 -4.36769e-006 -1.3388e-006 1.1472 -3.4929 2.6336 -2.84599e-007 -3.16673e-006 8.04873e-007 0.8229 -2.3 1.6571 -3.13086e-015 2.54444e-014 3.08116e-015 -9.412 3.9771 -0.7758 0.635142 -34.7108 -2.7163 -0.7531 -40.938 3.55271e-015 0.0641453 87.4007 -2.55211 8.88179e-016 -40.1986 -7.10543e-015 -2.70236 27.1628 -1.01151 0 -4.4182 9.239 3.47873e-016 -1.59028e-015 7.95139e-016 9.4119 3.9773 -0.7758 -1.37417 1.68533 0.0645203 0.7532 -40.9383 0 2.07286e-005 -0.0463764 0.191203 0 -40.1986 3.55271e-015 3.36685 -1.65112 -0.0505255 0 -4.4182 9.239 6.89184e-012 7.44727e-009 2.13443e-007 
0.0051758 27.9134 9.69599 -180 -89.9981 -180 0 8.7983 -4.7612 0 0 -0 0 8.0291 0.4195 0 0 -0 0 9.9351 -2.2114 0 0 -0 0 22.3885 -0.4656 1.9987 -0.0821309 0.00286647 -0.0001 12.643 3.4389 19.1806 2.29872e-006 9.50222e-007 2.2603 21.606 7.4023 8.87476e-007 -0.0821799 -12.5014 13.5163 -1.1332 -5.0146 14.4587 4.95787 22.3899 -0.0995 -28.05 -0.2431 -54.0357 -75.5243 -46.2572 0.0679 -23.3996 -0.1402 -38.4736 6.8341 1.1496 0.7932 -9.069 2.5189 1.68967e-015 -3.18055e-015 1.59028e-015 -0.8272 -3.3923 0.5977 -1.59028e-015 -3.18055e-015 3.97569e-016 -0.5649 -2.3158 0.4082 -1.71691e-006 -9.07032e-007 -1.38076e-006 0.9159 -9.2044 0.2193 1.68967e-015 -3.18055e-015 1.59028e-015 0.0117 -4.1944 -0.0248 -0.0128338 0.00232503 8.31344e-005 0.0071 -2.3249 -0.0142 1.38478e-007 -6.36111e-015 -4.03467e-007 0.6113 -8.7231 -2.0637 1.68967e-015 -3.18055e-015 1.59028e-015 -0.1927 -3.8059 -0.2383 -0.0160229 0.00298766 0.000858213 -0.1091 -2.1688 -0.1362 -7.43172e-006 -4.04535e-006 -1.91267e-006 -0.6151 -8.0947 -3.5641 1.68967e-015 -3.18055e-015 1.59028e-015 -0.4882 -2.341 -0.6462 -0.0126268 0.00312916 0.00283552 -0.3575 -1.7167 -0.4742 -5.06901e-015 -3.18055e-015 1.59028e-015 -1.42 -1.8761 1.4223 1.68967e-015 -3.18055e-015 1.59028e-015 -1.1471 -3.4929 2.6334 -1.59028e-015 -3.18055e-015 3.97569e-016 -0.823 -2.3 1.6571 -1.71691e-006 -9.07032e-007 -1.38076e-006 -2.2603 21.606 7.4023 -0.865642 0.0836488 7.03735 -13.5187 -1.1334 -5.0155 -14.5989 4.81953 -17.0129 0.0994 -28.0499 -0.2431 54.9906 -76.624 46.57 -0.0679 -23.3996 -0.1402 35.422 6.53515 -0.0276323 -0.7932 -9.0691 2.5189 1.31282e-005 -4.6786e-007 2.68432e-006 0.8272 -3.3923 0.5977 -7.08058e-006 1.56608e-006 -2.80727e-006 0.565 -2.3158 0.4082 1.2921e-015 0 1.2921e-015 -0.916 -9.2044 0.2193 1.31282e-005 -4.6786e-007 2.68432e-006 -0.0117 -4.1944 -0.0248 0.0129238 0.00231488 -8.79318e-005 -0.0071 -2.3249 -0.0142 -1.40124e-007 -3.18055e-015 4.03217e-007 -0.6113 -8.7231 -2.0637 1.31282e-005 -4.6786e-007 2.68432e-006 0.1927 -3.8059 -0.2383 0.0162839 0.00302912 -0.000875409 0.1091 -2.1688 -0.1362 1.51482e-005 -2.30161e-006 2.79244e-006 0.6151 -8.0947 -3.564 1.31282e-005 -4.6786e-007 2.68432e-006 0.4882 -2.341 -0.6462 0.014566 0.00367391 -0.00326935 0.3574 -1.7166 -0.4742 -2.80266e-007 4.6588e-008 8.06426e-007 1.4199 -1.8761 1.4221 1.31282e-005 -4.6786e-007 2.68432e-006 1.1472 -3.4929 2.6336 -7.08058e-006 1.56608e-006 -2.80727e-006 0.8229 -2.3 1.6571 1.2921e-015 0 1.2921e-015 -9.412 3.9771 -0.7758 0.635142 -34.7108 -2.7163 -0.7531 -40.938 3.55271e-015 0.0641453 87.4007 -2.55211 8.88179e-016 -40.1986 -7.10543e-015 -2.70236 27.1628 -1.01151 0 -4.4182 9.239 3.47873e-016 -1.59028e-015 7.95139e-016 9.4119 3.9773 -0.7758 -1.37417 1.68533 0.0645203 0.7532 -40.9383 0 2.07286e-005 -0.0463764 0.191203 0 -40.1986 3.55271e-015 3.36685 -1.65112 -0.0505255 0 -4.4182 9.239 6.89184e-012 7.44727e-009 2.13443e-007 
0.0051758 27.9134 9.69599 -180 -89.9981 -180 0 8.7983 -4.7612 0 0 -0 0 8.0291 0.4195 0 0 -0 0 9.9351 -2.2114 0 0 -0 0 22.3885 -0.4656 1.9987 -0.0821309 0.00286647 -0.0001 12.643 3.4389 18.3611 3.59383e-006 -1.91372e-006 2.2603 21.606 7.4023 8.87476e-007 -0.0821799 -12.5014 13.5163 -1.1332 -5.0146 14.4587 4.95782 22.3899 -0.0995 -28.05 -0.2431 -56.0957 -75.8488 -48.2724 0.0679 -23.3996 -0.1402 -38.4735 6.83409 1.14959 0.7932 -9.069 2.5189 9.83984e-015 -6.36111e-015 3.97569e-016 -0.8272 -3.3923 0.5977 -5.41038e-007 -3.04535e-006 1.61862e-006 -0.5649 -2.3158 0.4082 1.35259e-007 0 -4.04656e-007 0.9159 -9.2044 0.2193 9.83984e-015 -6.36111e-015 3.97569e-016 0.0117 -4.1944 -0.0248 -0.0128128 0.00232255 8.56963e-005 0.0071 -2.3249 -0.0142 1.59028e-015 3.18055e-015 1.59028e-015 0.6113 -8.7231 -2.0637 9.83984e-015 -6.36111e-015 3.97569e-016 -0.1927 -3.8059 -0.2383 -0.0161068 0.00300388 0.000863056 -0.1091 -2.1688 -0.1362 -6.00474e-006 -8.98379e-007 2.33789e-007 -0.6151 -8.0947 -3.5641 9.83984e-015 -6.36111e-015 3.97569e-016 -0.4882 -2.341 -0.6462 -0.012614 0.00312637 0.00283382 -0.3575 -1.7167 -0.4742 -1.43187e-005 7.73416e-007 -5.09898e-007 -1.42 -1.8761 1.4223 9.83984e-015 -6.36111e-015 3.97569e-016 -1.1471 -3.4929 2.6334 -5.41038e-007 -3.04535e-006 1.61862e-006 -0.823 -2.3 1.6571 1.35259e-007 0 -4.04656e-007 -2.2603 21.606 7.4023 -0.865642 0.0836488 7.03735 -13.5187 -1.1334 -5.0155 -14.599 4.81952 -17.0129 0.0994 -28.0499 -0.2431 56.4336 -76.8361 47.9817 -0.0679 -23.3996 -0.1402 35.4221 6.53515 -0.0276283 -0.7932 -9.0691 2.5189 -1.56046e-014 3.18055e-015 -3.08116e-015 0.8272 -3.3923 0.5977 5.51653e-007 1.49645e-006 -1.61596e-006 0.565 -2.3158 0.4082 -1.97542e-015 0 3.47873e-016 -0.916 -9.2044 0.2193 -1.56046e-014 3.18055e-015 -3.08116e-015 -0.0117 -4.1944 -0.0248 0.0129693 0.00231942 -8.48477e-005 -0.0071 -2.3249 -0.0142 1.37929e-007 -4.60936e-008 -4.03984e-007 -0.6113 -8.7231 -2.0637 -1.56046e-014 3.18055e-015 -3.08116e-015 0.1927 -3.8059 -0.2383 0.0163356 0.00303681 -0.000874759 0.1091 -2.1688 -0.1362 -3.45388e-015 6.36111e-015 -1.98785e-015 0.6151 -8.0947 -3.564 -1.56046e-014 3.18055e-015 -3.08116e-015 0.4882 -2.341 -0.6462 0.0146226 0.00369403 -0.00327349 0.3574 -1.7166 -0.4742 -2.93207e-015 0 2.38542e-015 1.4199 -1.8761 1.4221 -1.56046e-014 3.18055e-015 -3.08116e-015 1.1472 -3.4929 2.6336 5.51653e-007 1.49645e-006 -1.61596e-006 0.8229 -2.3 1.6571 -1.97542e-015 0 3.47873e-016 -9.412 3.9771 -0.7758 0.635142 -34.7108 -2.7163 -0.7531 -40.938 3.55271e-015 0.0641453 87.4007 -2.55211 8.88179e-016 -40.1986 -7.10543e-015 -2.70236 27.1628 -1.01151 0 -4.4182 9.239 3.47873e-016 -1.59028e-015 7.95139e-016 9.4119 3.9773 -0.7758 -1.37417 1.68533 0.0645203 0.7532 -40.9383 0 2.07286e-005 -0.0463764 0.191203 0 -40.1986 3.55271e-015 3.36685 -1.65112 -0.0505255 0 -4.4182 9.239 6.89184e-012 7.44727e-009 2.13443e-007 
